<?xml version="1.0" ?>
<svg baseProfile="tiny" id="Layer_1" overflow="scroll" version="1.1" viewBox="0 0 24 24" xml:space="preserve"
     xmlns="http://www.w3.org/2000/svg"><path d="M22.25,12c0-5.6523438-4.5981445-10.25-10.25-10.25c-0.7929688,0-1.5961914,0.0976563-2.394043,0.2910156  C8.699707,1.3671875,7.6108398,1,6.5,1C3.6049805,1,1.25,3.3554688,1.25,6.25c0,1.0410156,0.3115234,2.0400391,0.9042969,2.9130859  C1.8857422,10.0917969,1.75,11.0439453,1.75,12c0,5.6523438,4.5981445,10.25,10.25,10.25  c0.7929688,0,1.5961914-0.0976563,2.394043-0.2910156C15.300293,22.6328125,16.3891602,23,17.5,23  c2.8950195,0,5.25-2.3554688,5.25-5.25c0-1.0410156-0.3115234-2.0400391-0.9042969-2.9130859  C22.1142578,13.9082031,22.25,12.9560547,22.25,12z M17.5,21.5c-0.8955078,0-1.7392578-0.3212891-2.4399414-0.9277344  c-0.1381836-0.1201172-0.3129883-0.1835938-0.4912109-0.1835938c-0.0678711,0-0.1357422,0.0087891-0.2026367,0.0283203  C13.5771484,20.6376953,12.78125,20.75,12,20.75c-4.824707,0-8.75-3.9248047-8.75-8.75  c0-0.9248047,0.1494141-1.8466797,0.4443359-2.7412109c0.0786133-0.2392578,0.0322266-0.5019531-0.1240234-0.6992188  C3.0336914,7.8808594,2.75,7.0820313,2.75,6.25c0-2.0673828,1.6821289-3.75,3.75-3.75  c0.8955078,0,1.7392578,0.3212891,2.4399414,0.9277344C9.1313477,3.59375,9.3911133,3.6552734,9.6337891,3.5830078  C10.4228516,3.3623047,11.21875,3.25,12,3.25c4.824707,0,8.75,3.9248047,8.75,8.75  c0,0.9248047-0.1494141,1.8466797-0.4443359,2.7412109c-0.0786133,0.2392578-0.0322266,0.5019531,0.1240234,0.6992188  C20.9663086,16.1191406,21.25,16.9179688,21.25,17.75C21.25,19.8173828,19.5678711,21.5,17.5,21.5z" fill="#1D1D1D"/><path d="M12.0556641,7.0117188c0.0161133-0.0029297,1.8105469-0.1025391,2.2734375,0.8232422  c0.1855469,0.3720703,0.6357422,0.5214844,1.0063477,0.3359375s0.5205078-0.6357422,0.3354492-1.0058594  C14.7480469,5.3193359,12.0566406,5.5078125,12,5.5136719c-1.9951172,0-3.6181641,1.6230469-3.6181641,3.6181641  S10.0048828,12.75,12,12.75c1.1679688,0,2.1181641,0.9501953,2.1181641,2.1181641S13.1679688,16.9863281,12,16.9863281  c-0.0107422,0-1.1274414-0.0205078-2.2314453-0.7568359C9.4243164,16.0009766,8.9584961,16.0927734,8.7285156,16.4375  s-0.1367188,0.8105469,0.2080078,1.0400391c1.4956055,0.9970703,3,1.0087891,3.0634766,1.0087891  c1.9951172,0,3.6181641-1.6230469,3.6181641-3.6181641S13.9951172,11.25,12,11.25  c-1.1679688,0-2.1181641-0.9501953-2.1181641-2.1181641S10.8320313,7.0136719,12.0556641,7.0117188z" fill="#1D1D1D"/></svg>